<svg xmlns="http://www.w3.org/2000/svg" id="Layer_1" width="594.174" height="648.065" data-name="Layer 1"><defs><linearGradient id="GradientFill_1" x1="444.948" x2="419.901" y1="108.069" y2="201.544" gradientUnits="userSpaceOnUse"><stop offset="0" stop-color="#7a1816"/><stop offset=".049" stop-color="#821916"/><stop offset=".346" stop-color="#ac2018"/><stop offset=".614" stop-color="#cb261a"/><stop offset=".841" stop-color="#de291b"/><stop offset="1" stop-color="#e52a1b"/></linearGradient><linearGradient id="GradientFill_4" x1="207.188" x2="307.554" y1="303.279" y2="312.06" gradientUnits="userSpaceOnUse"><stop offset="0" stop-color="#87162b"/><stop offset=".637" stop-color="#c62320"/><stop offset="1" stop-color="#e52a1b"/></linearGradient><linearGradient id="GradientFill_5" x1="448.407" x2="400.782" y1="232.355" y2="305.69" gradientUnits="userSpaceOnUse"><stop offset="0" stop-color="#87162b"/><stop offset=".109" stop-color="#981a28"/><stop offset=".358" stop-color="#b92122"/><stop offset=".596" stop-color="#d1261e"/><stop offset=".816" stop-color="#e0291c"/><stop offset="1" stop-color="#e52a1b"/></linearGradient><radialGradient id="GradientFill_2" cx="468.967" cy="84.573" r="63.505" gradientUnits="userSpaceOnUse"><stop offset="0" stop-color="#f18a61"/><stop offset=".283" stop-color="#ee7350"/><stop offset=".874" stop-color="#e73825"/><stop offset="1" stop-color="#e52a1b"/></radialGradient><radialGradient id="GradientFill_3" cx="303.563" cy="256.342" r="92.613" gradientUnits="userSpaceOnUse"><stop offset="0" stop-color="#f18a61"/><stop offset=".974" stop-color="#e52d1d"/><stop offset="1" stop-color="#e52a1b"/></radialGradient><style>.cls-1{fill:#005173}</style></defs><path d="M289.092 564v27.908q0 6.525 2.36 9.11c1.58 1.722 4.284 2.587 8.137 2.587s6.558-.855 8.116-2.565q2.353-2.58 2.348-9.132v-27.909h9.793v28.158a38.365 38.365 0 0 1-.649 7.899 10.79 10.79 0 0 1-2.078 4.653 16.377 16.377 0 0 1-7.023 4.848 36.306 36.306 0 0 1-21.047 0 16.349 16.349 0 0 1-7.056-4.848 10.527 10.527 0 0 1-2.023-4.534 38.979 38.979 0 0 1-.639-8.018v-28.158ZM328.124 563.999h13.757l18.915 34.235-.483-34.235h9.408v46.608h-12.08l-20.083-36.414.331 36.414h-9.765v-46.608zM379.193 563.999h10.236v46.607h-10.236zM419.065 563.08q11.434.005 16.916 5.93 5.502 5.925 5.498 18.299 0 12.353-5.498 18.32-5.484 5.952-16.916 5.962v-8.051q6.166-.004 9.15-3.982 2.98-3.976 2.98-12.26 0-8.296-2.98-12.273-2.988-3.954-9.15-3.96Zm-22.475 23.752q0-12.027 5.55-17.886 5.565-5.861 16.91-5.867h.016v7.987h-.016q-6.084 0-9.102 3.927-3.01 3.945-3.01 11.894 0 8.635 2.925 12.639 2.917 4.01 9.187 4.014h.015v8.051h-.015q-11.57 0-17.015-5.995-5.44-5.988-5.445-18.764ZM448.522 563.999h13.757l18.915 34.235-.482-34.235h9.407v46.608h-12.08l-20.083-36.414.33 36.414h-9.764v-46.608z" class="cls-1"/><path d="M338.919 219.862c15.991-13.854 28.482-34.1 37.745-52.797 3.652-7.375 7.336-14.955 10.969-22.752 9.654-20.72 20.098-41.853 37.285-56.274 16.496-13.84 33.505-18.372 52.642-21.551 23.862-3.964 42.263-6.33 61.311-30.078 0 0-1.023 26.602-19.4 43.911-18.111 17.057-39.806 16.335-64.132 20.268 0 0-4.79 2.103-19.235 30.257s-33.24 68.542-97.185 89.016Z" style="fill:url(#GradientFill_1);fill-rule:evenodd"/><path d="m386.904 145.87.729-1.557c9.654-20.72 20.098-41.853 37.285-56.274 16.496-13.84 33.505-18.372 52.642-21.551 23.862-3.964 42.263-6.33 61.311-30.078 0 0-1.023 26.602-19.4 43.911-18.111 17.057-39.806 16.335-64.132 20.268 0 0-.024.011-.072.04-30.624 5.033-49.47 20.056-68.363 45.241Z" style="fill:url(#GradientFill_2);fill-rule:evenodd"/><path d="m439.045 203.661-5.697-42.162s-18.752 31.719-48.267 48.971c-33.328 19.482-66.69 25.366-103.77 33.444-42.302 9.218-97.84 33.57-113.23 86.948 0 0 15.968-34.855 59.55-49.765s73.677-10.355 102.096-14.028c12.515-1.618 28.864-3.513 46.037-9.792 21.822-7.98 44.975-22.462 63.28-53.615Z" style="fill:url(#GradientFill_3);fill-rule:evenodd"/><path d="M441.636 221.887s1.35 17.57 1.492 24.258c.121 5.746-.077 42.252-12.61 70.474-9.678 21.798-27.183 40.728-50.713 47.235a102.241 102.241 0 0 1-27.198 3.63c-10.013.023-30.563-.73-63.309-15.322-32.746-14.588-50.145-25.574-80.007-19.686s-43.722 40.07-43.54 68.009h-12.255s-1.345-38.913 18.186-66.336 46.868-33.458 88.522-31.04 78.544 4.23 107.792-5.17 50.439-24.661 73.64-76.052Z" style="fill:url(#GradientFill_4);fill-rule:evenodd"/><path d="M441.636 221.887s1.35 17.57 1.492 24.258c.121 5.746-.077 42.252-12.61 70.474-7.029 15.83-18.185 30.145-32.779 39.29-9.768-17.377-23.183-43.555-30.388-57.769.214-.067.43-.133.645-.202 29.247-9.401 50.439-24.66 73.64-76.05Z" style="fill:url(#GradientFill_5);fill-rule:evenodd"/><path d="M446.215 475.165h47.654c.79-20.554-2.784-36.503-10.94-47.615-7.887-10.746-18.904-17.513-36.714-17.726v10.48c10.474.067 20.924 4.955 26.924 14.286 4.6 7.156 8.03 17.085 8.605 30.227l-35.53-.17v10.518Zm0 58.385a75.198 75.198 0 0 0 43.248-12.01l-5.448-8.579a59.086 59.086 0 0 1-37.8 9.218Zm-35.689-58.385h35.689v-10.517l-35.528-.17c.649-9.784 2.683-18.877 5.989-24.944a45.892 45.892 0 0 1 5.811-9.08 31.384 31.384 0 0 1 23.728-10.15v-10.48l-.112-.003c-16.263-.17-28.007 6.57-36.369 17.579-7.461 9.823-11.74 24.066-12.325 43.592-.071 22.794 5.665 38.976 16.131 49.206 9.031 8.827 20.689 12.802 32.675 13.352V522.18c-11.306-1.18-21.592-6-27.637-15.068-4.997-7.495-7.611-19.612-8.052-31.946Zm-154.21 137.267v-3.448a17.906 17.906 0 0 0 11.457-2.794l1.651 2.601a22.806 22.806 0 0 1-13.108 3.641Zm0-17.7v-3.19l10.77.051a18.2 18.2 0 0 0-2.61-9.163 9.724 9.724 0 0 0-8.16-4.331v-3.177c5.399.065 8.739 2.116 11.13 5.376 2.469 3.365 3.554 8.202 3.314 14.435Zm0-168.058v-13.101a38.185 38.185 0 0 1 16.23 10.948c6.887 8.3 8.925 18.563 8.925 28.95v78.654h-13.048v-78.322c0-10.257-2.355-19.296-10.81-26.144q-.631-.51-1.297-.985Zm48.798-15.47h13.048v120.921h-13.048v-120.92Zm44.752-25.932h13.049v25.932h25.269v9.614h-25.269v83.176c.133 5.056 1.188 9.327 3.776 12.293a16.919 16.919 0 0 0 12.95 5.747l9.691-.123-.066 9.715q-5.452.125-10.909.248c-9.816.222-19.108-2.991-24.187-11.91-2.98-5.23-3.701-10.602-4.304-16.427V420.82h-13.863v-9.615h13.863Zm-93.55 28.3v13.102c-12.07-8.637-31.936-8.324-43.432.985-8.455 6.848-10.81 15.887-10.81 26.144v78.322h-13.049v-78.654c0-10.387 2.039-20.65 8.926-28.95 12.088-14.568 38.9-18.219 58.365-10.948Zm0 161.35v3.177a9.516 9.516 0 0 0-7.195 3.076 14.024 14.024 0 0 0-1.76 2.754 19.293 19.293 0 0 0-1.816 7.562l10.77.05v3.192h-10.82c.134 3.736.926 7.41 2.44 9.684a11.134 11.134 0 0 0 8.38 4.567v3.448a14.835 14.835 0 0 1-9.906-4.048c-3.174-3.102-4.911-8.009-4.89-14.918.178-5.92 1.473-10.236 3.737-13.215a12.963 12.963 0 0 1 11.025-5.33l.035.001Zm-48.358-11.214h4.025v15.962q.115-.144.234-.287c4.753-5.742 16.432-5.843 21.187-.1a12.98 12.98 0 0 1 2.63 8.553v23.238h-3.846v-23.14c0-5.951-3.518-9.437-9.323-9.651a10.558 10.558 0 0 0-7.048 1.927 10.02 10.02 0 0 0-3.835 7.534v23.33h-4.025v-47.367Zm-18.198 4.21h4.024v7.999h7.794v2.965h-7.794v23.66a5.875 5.875 0 0 0 1.165 3.791 5.218 5.218 0 0 0 3.994 1.774l2.99-.038-.02 2.997-3.365.076c-3.028.068-5.894-.923-7.46-3.675a12.247 12.247 0 0 1-1.327-5.065v-23.52h-4.276v-2.966h4.276v-7.999Zm-47.043-52.462c8.455-6.847 10.81-15.887 10.81-26.143V410.99h13.049v78.654c0 10.387-2.039 20.65-8.926 28.952-16.131 19.44-58.467 19.434-74.594 0-6.888-8.301-8.926-18.565-8.926-28.952V410.99h13.048v78.323c0 10.256 2.355 19.296 10.81 26.143 11.917 9.65 32.832 9.633 44.729 0Z" style="fill-rule:evenodd;fill:#005173"/></svg>